Once Upon a Time in America (1984)

Director: Sergio Leone

Once Upon a Time in America is a 1984 Italian/American epic crime film directed and co-written by Sergio Leone and starring Robert De Niro and James Woods. The story chronicles the lives of Jewish ghetto youths who rise to prominence in New York City's world of organized crime. The film explores themes of childhood friendships, love, lust, greed, betrayal, loss, broken relationships, and the rise of mobsters in American society.

Leone adapted the story from the novel The Hoods, written by Harry Grey, while filming Once Upon a Time in the West. From there, Leone began production of Once Upon a Time in America. The film went through various casting developments and production issues before filming began in 1982.

The film premiered out of competition at the 1984 Cannes Film Festival in its original running time of 229 minutes (3 hours 49 minutes) where it received critical acclaim. However, Once Upon a Time in America was heavily edited against the director's wishes for its June 1, 1984, release. The short version changed the flashback narrative by moving the scenes in chronological order. Leone was reportedly heartbroken by the American cut, and never made another film before his death in 1989, making this his final film.

Media Info, (Sample Disc 1),:
General
Complete name                    : J:\Seeding\Once Upon A Time In America (1984)[DVDRip][big_dad_e™]\Disc 1.AVI
Format                           : AVI
Format/Info                      : Audio Video Interleave
File size                        : 1.53 GiB
Duration                         : 1h 59mn
Overall bit rate                 : 1 832 Kbps

Video
ID                               : 0
Format                           : MPEG-4 Visual
Format profile                   : Simple@L3
Format settings, BVOP            : No
Format settings, QPel            : No
Format settings, GMC             : No warppoints
Format settings, Matrix          : Default (H.263)
Codec ID                         : XVID
Codec ID/Hint                    : XviD
Duration                         : 1h 59mn
Bit rate                         : 1 500 Kbps
Width                            : 720 pixels
Height                           : 480 pixels
Display aspect ratio             : 16:9
Frame rate                       : 23.976 fps
Standard                         : NTSC
Color space                      : YUV
Chroma subsampling               : 4:2:0
Bit depth                        : 8 bits
Scan type                        : Progressive
Bits/(Pixel*Frame)               : 0.181
Stream size                      : 1.26 GiB (82%)
Writing library                  : XviD 
Audio
ID                               : 1
Format                           : MPEG Audio
Format version                   : Version 1
Format profile                   : Layer 3
Mode                             : Joint stereo
Codec ID                         : 55
Codec ID/Hint                    : MP3
Duration                         : 1h 59mn
Bit rate mode                    : Constant
Bit rate                         : 320 Kbps
Channel(s)                       : 2 channels
Sampling rate                    : 48.0 KHz
Stream size                      : 274 MiB (17%)
Alignment                        : Split accross interleaves
Interleave, duration             : 24 ms (0.58 video frame)
Writing library                  : LAME3.98

File Scan:
Malwarebytes' Anti-Malware 1.50.1.1100
www.malwarebytes.org

Database version: 5898
2/27/2011 7:19:51 PM
mbam-log-2011-02-27 (19-19-51).txt

Scan type: Quick scan
Objects scanned: 6
Time elapsed: 15 second(s)

Memory Processes Infected: 0
Memory Modules Infected: 0
Registry Keys Infected: 0
Registry Values Infected: 0
Registry Data Items Infected: 0
Folders Infected: 0
Files Infected: 0

Memory Processes Infected:
(No malicious items detected)

Memory Modules Infected:
(No malicious items detected)

Registry Keys Infected:
(No malicious items detected)

Registry Values Infected:
(No malicious items detected)

Registry Data Items Infected:
(No malicious items detected)

Folders Infected:
(No malicious items detected)

Files Infected:
(No malicious items detected)

When using TPB please read these important notes:
  
01- Anti-malware apps may warn about keygens, patches, cracks, etc., because of 
    their capabilities, (generating codes, etc.). Sometimes they're added to 
    the virus/spyware database and will be detected as malware. If you don't trust
    the keygens, patches, cracks, etc., don't use them. 
    
02- Before running .exe-files, keygens, patches, cracks, etc., always check first 
    if they can be unpacked. Often some third party added a virus to the 
    original file, repacked it and uploaded it again.

03- Letting anti-malware apps send scan results to their companies can cause
    keygens, patches, cracks, etc., to be added to their virus-database.

04- Firewalls which are set to automatically determine connections will allow 
    apps & malware!. Avoid this by manually configuring your firewall.

05- Usually (new) torrents with many downloads and seeders in a brief period is
    suspicious! Torrents with the Skull & Crossbones icon are trusted.

06- Some people use multiple accounts and post fake comments 
    and/or files trying to spread confusion. They seldom seriously
    comment or have any torrents, or a just a few to look passable.

07- Clicking on unknown links can cause malware to be installed on your machine.
  
08- In general often there are more fake and negative comments than reliable and
    positive comments.

09- In some countries uploading/downloading copyright protected material is 
    forbidden, but showing some appreciation to reliable up-loaders is not.

10- Posting fake and negative comments or fake/infected uploads on TPB can result
    in getting banned from TPB!

Requests?  Find me on SuprBay. http://forum.suprbay.org
 

For reporting bad or suspicious torrents:  
http://forum.suprbay.org/forumdisplay.php?fid=29

For more of my torrents: 
https://thepiratebay.org/user/big_dad_e/  (Secured)

All torrents scanned with:
Norton Anti-virus
Malwarebytes' Anti-malware
 
http://www.pirate-party.us/

ALWAYS SEED & THANKS SEEDERS!